<?xml version="1.0" encoding="UTF-8"?>
<svg id="Layer_1" data-name="Layer 1" xmlns="http://www.w3.org/2000/svg" viewBox="0 0 29.83 36">
  <defs>
    <style>
      .cls-1 {
        opacity: .33;
      }

      .cls-2 {
        opacity: .66;
      }

      .cls-3 {
        fill: #1b75bb;
        stroke-width: 0px;
      }
    </style>
  </defs>
  <g class="cls-1">
    <path class="cls-3" d="M20.43,33.17c-.34.15-.68.28-1.03.41-1.62.59-3.36.89-5.15.89-2.59,0-4.88-.57-6.8-1.71-1.91-1.13-3.4-2.71-4.41-4.7-1-1.97-1.51-4.23-1.51-6.72v-2.63c0-2.18.39-4.2,1.17-6.02-.53.64-.97,1.35-1.35,2.12-.9,1.86-1.35,3.96-1.35,6.26v2.63c0,2.36.48,4.49,1.42,6.35.94,1.85,2.32,3.31,4.1,4.36,1.79,1.06,3.93,1.59,6.38,1.59,1.69,0,3.34-.28,4.87-.84,1.4-.5,2.65-1.16,3.7-1.94l-.03-.05ZM18.49,12.03c-1.18-1.43-2.81-2.13-5-2.13-1.28,0-2.37.24-3.3.74-.16.28-.31.57-.44.89.44-.06.91-.1,1.39-.1,2.41,0,4.31.82,5.63,2.43.42.52.77,1.09,1.06,1.73h2.22c-.27-1.43-.8-2.62-1.57-3.56ZM9.16,21.86c.1.55.24,1.05.42,1.53h12.08c.05-.44.08-.95.09-1.53h-12.59Z"/>
  </g>
  <g class="cls-2">
    <path class="cls-3" d="M22.79,30.81c-.34.15-.68.29-1.04.42-.42.15-.85.28-1.29.39-.14.04-.28.08-.42.1-.14.04-.28.07-.42.09-.63.13-1.27.21-1.92.26-.35.03-.7.04-1.06.04h-.04c-.35,0-.68-.01-1.02-.03-2.18-.13-4.11-.68-5.77-1.67-1.91-1.13-3.4-2.72-4.41-4.7-.24-.48-.46-.99-.65-1.5-.05-.14-.09-.27-.14-.41s-.09-.27-.12-.41c-.21-.73-.37-1.48-.47-2.26-.02-.14-.03-.27-.05-.41-.05-.47-.08-.95-.08-1.43,0-.09,0-.19,0-.28v-2.63c0-2.05.35-3.97,1.04-5.7.04-.11.09-.22.13-.32-.14.16-.26.32-.38.49-.37.51-.69,1.06-.97,1.64-.89,1.86-1.35,3.96-1.35,6.25v2.63c0,2.36.48,4.49,1.43,6.35.08.15.15.29.24.44.44.8.97,1.52,1.6,2.16.66.68,1.41,1.27,2.25,1.77.22.13.45.26.68.37,0,0,.02,0,.02,0,.93.46,1.95.79,3.05.99h0c.83.15,1.7.23,2.62.23,1.7,0,3.34-.28,4.87-.84.3-.11.6-.23.89-.35.13-.06.26-.11.38-.17.13-.05.25-.11.37-.17.75-.37,1.44-.78,2.07-1.25l-.03-.05ZM20.84,9.68c-1.18-1.43-2.81-2.13-5-2.13-1.14,0-2.14.2-3,.59-.23.1-.44.22-.64.35-.19.11-.37.24-.53.38-.19.16-.38.32-.55.52.73-.21,1.51-.31,2.37-.31h.06c.96,0,1.84.14,2.63.41,1.17.39,2.16,1.07,2.94,2.03.28.35.54.73.76,1.13.45.81.78,1.74.97,2.78.01.05.02.11.03.17h1.74c-.02-2.51-.62-4.49-1.78-5.91ZM8.91,19.5c0,.27.02.53.04.8.01.14.02.28.03.41.01.11.02.22.04.32h14.98c.05-.44.08-.95.1-1.53h-15.2ZM20.84,9.68c-1.18-1.43-2.81-2.13-5-2.13-1.14,0-2.14.2-3,.59-.23.1-.44.22-.64.35-.19.11-.37.24-.53.38-.19.16-.38.32-.55.52.73-.21,1.51-.31,2.37-.31h.06c.96,0,1.84.14,2.63.41,1.17.39,2.16,1.07,2.94,2.03.28.35.54.73.76,1.13.45.81.78,1.74.97,2.78.01.05.02.11.03.17h1.74c-.02-2.51-.62-4.49-1.78-5.91ZM20.84,9.68c-1.18-1.43-2.81-2.13-5-2.13-1.14,0-2.14.2-3,.59-.23.1-.44.22-.64.35-.19.11-.37.24-.53.38-.19.16-.38.32-.55.52.73-.21,1.51-.31,2.37-.31h.06c.96,0,1.84.14,2.63.41,1.17.39,2.16,1.07,2.94,2.03.28.35.54.73.76,1.13.45.81.78,1.74.97,2.78.01.05.02.11.03.17h1.74c-.02-2.51-.62-4.49-1.78-5.91ZM20.84,9.68c-1.18-1.43-2.81-2.13-5-2.13-1.14,0-2.14.2-3,.59-.23.1-.44.22-.64.35-.19.11-.37.24-.53.38-.19.16-.38.32-.55.52.73-.21,1.51-.31,2.37-.31h.06c.96,0,1.84.14,2.63.41,1.17.39,2.16,1.07,2.94,2.03.28.35.54.73.76,1.13.45.81.78,1.74.97,2.78.01.05.02.11.03.17h1.74c-.02-2.51-.62-4.49-1.78-5.91ZM20.84,9.68c-1.18-1.43-2.81-2.13-5-2.13-1.14,0-2.14.2-3,.59-.23.1-.44.22-.64.35-.19.11-.37.24-.53.38-.19.16-.38.32-.55.52.73-.21,1.51-.31,2.37-.31h.06c.96,0,1.84.14,2.63.41,1.17.39,2.16,1.07,2.94,2.03.28.35.54.73.76,1.13.45.81.78,1.74.97,2.78.01.05.02.11.03.17h1.74c-.02-2.51-.62-4.49-1.78-5.91ZM12.84,8.14c-.23.1-.44.22-.64.35-.19.11-.37.24-.53.38-.19.16-.38.32-.55.52.73-.21,1.51-.31,2.37-.31h.06c.96,0,1.84.14,2.63.41,1.17.39,2.16,1.07,2.94,2.03.28.35.54.73.76,1.13.45.81.78,1.74.97,2.78.01.05.02.11.03.17h1.74c-.02-2.51-.62-4.49-1.78-5.91-1.18-1.43-2.81-2.13-5-2.13-1.14,0-2.14.2-3,.59ZM20.84,9.68c-1.18-1.43-2.81-2.13-5-2.13-1.14,0-2.14.2-3,.59-.23.1-.44.22-.64.35-.19.11-.37.24-.53.38-.19.16-.38.32-.55.52.73-.21,1.51-.31,2.37-.31h.06c.96,0,1.84.14,2.63.41,1.17.39,2.16,1.07,2.94,2.03.28.35.54.73.76,1.13.45.81.78,1.74.97,2.78.01.05.02.11.03.17h1.74c-.02-2.51-.62-4.49-1.78-5.91ZM20.84,9.68c-1.18-1.43-2.81-2.13-5-2.13-1.14,0-2.14.2-3,.59-.23.1-.44.22-.64.35-.19.11-.37.24-.53.38-.19.16-.38.32-.55.52.73-.21,1.51-.31,2.37-.31h.06c.96,0,1.84.14,2.63.41,1.17.39,2.16,1.07,2.94,2.03.28.35.54.73.76,1.13.45.81.78,1.74.97,2.78.01.05.02.11.03.17h1.74c-.02-2.51-.62-4.49-1.78-5.91ZM20.84,9.68c-1.18-1.43-2.81-2.13-5-2.13-1.14,0-2.14.2-3,.59-.23.1-.44.22-.64.35-.19.11-.37.24-.53.38-.19.16-.38.32-.55.52.73-.21,1.51-.31,2.37-.31h.06c.96,0,1.84.14,2.63.41,1.17.39,2.16,1.07,2.94,2.03.28.35.54.73.76,1.13.45.81.78,1.74.97,2.78.01.05.02.11.03.17h1.74c-.02-2.51-.62-4.49-1.78-5.91ZM20.84,9.68c-1.18-1.43-2.81-2.13-5-2.13-1.14,0-2.14.2-3,.59-.23.1-.44.22-.64.35-.19.11-.37.24-.53.38-.19.16-.38.32-.55.52.73-.21,1.51-.31,2.37-.31h.06c.96,0,1.84.14,2.63.41,1.17.39,2.16,1.07,2.94,2.03.28.35.54.73.76,1.13.45.81.78,1.74.97,2.78.01.05.02.11.03.17h1.74c-.02-2.51-.62-4.49-1.78-5.91ZM20.84,9.68c-1.18-1.43-2.81-2.13-5-2.13-1.14,0-2.14.2-3,.59-.23.1-.44.22-.64.35-.19.11-.37.24-.53.38-.19.16-.38.32-.55.52.73-.21,1.51-.31,2.37-.31h.06c.96,0,1.84.14,2.63.41,1.17.39,2.16,1.07,2.94,2.03.28.35.54.73.76,1.13.45.81.78,1.74.97,2.78.01.05.02.11.03.17h1.74c-.02-2.51-.62-4.49-1.78-5.91Z"/>
  </g>
  <path class="cls-3" d="M26.37,18.68c.07-.59.1-1.32.1-2.17,0-2.6-.42-4.83-1.27-6.67h-.57c-.89,0-1.61-.73-1.61-1.61v-1.42h-1.42c-.89,0-1.61-.73-1.61-1.61v-.33c-1.23-.47-2.62-.7-4.14-.7-2.24,0-4.23.53-5.91,1.58-.39.24-.77.52-1.11.81-.34.28-.66.58-.96.91-.3.31-.57.64-.81,1-.08.1-.15.2-.22.31-.13.19-.25.38-.36.59-.12.19-.23.39-.32.59-.03.05-.06.11-.09.16-.71,1.47-1.14,3.09-1.29,4.84-.03.34-.05.68-.05,1.03-.01.13-.01.26-.01.39v2.63c0,.44.02.88.06,1.31,0,.14.02.28.03.41.02.14.03.28.06.41.1.79.26,1.54.49,2.26.03.14.08.28.13.41.04.14.09.28.15.41.15.39.31.76.5,1.13.08.16.17.32.26.47.45.8.99,1.52,1.62,2.15.65.68,1.39,1.26,2.22,1.75.22.13.45.26.68.37.93.45,1.94.78,3.03.99h.01c.84.16,1.72.23,2.65.23.29,0,.58,0,.86-.03.35-.02.7-.05,1.05-.1.37-.05.73-.1,1.08-.18.14-.03.28-.06.42-.1.49-.12.98-.26,1.46-.44.3-.11.6-.23.89-.35.13-.05.26-.11.38-.17.13-.06.25-.12.37-.18.75-.37,1.44-.78,2.06-1.25l-1.21-2.01c-1.11.68-2.19,1.21-3.22,1.59-1.15.42-2.48.63-3.93.63-2.78,0-4.95-.84-6.46-2.48-.53-.58-.97-1.25-1.31-2.03-.06-.13-.12-.27-.17-.41-.05-.13-.1-.27-.15-.41-.16-.48-.29-.99-.39-1.53-.02-.13-.05-.27-.06-.41-.02-.1-.03-.21-.04-.33-.01-.03-.01-.06-.01-.09-.02-.1-.03-.21-.04-.32-.01-.14-.02-.27-.03-.41-.03-.39-.04-.8-.04-1.21v-.41h18.29ZM8.08,16.42v-.42c.03-1.21.17-2.3.42-3.3.05-.16.09-.32.13-.48.05-.16.1-.32.16-.48,0-.02.01-.03.02-.05.1-.3.23-.6.36-.88.13-.27.27-.53.42-.78.17-.3.37-.57.59-.84.09-.11.19-.22.28-.32.14-.15.28-.3.44-.42.16-.15.32-.28.5-.41,1.2-.88,2.69-1.32,4.45-1.32h.08c.95,0,1.82.14,2.6.4,1.18.39,2.16,1.07,2.95,2.03.29.35.55.74.77,1.15.45.81.77,1.73.96,2.76.16.81.23,1.69.23,2.63v.72h-15.37Z"/>
  <path class="cls-3" d="M29.03,3.03h-2.24V.79c0-.44-.36-.79-.79-.79h-1.36c-.44,0-.79.36-.79.79v2.24h-2.24c-.44,0-.79.36-.79.79v1.36c0,.44.36.79.79.79h2.24v2.24c0,.44.36.79.79.79h1.36c.44,0,.79-.36.79-.79v-2.24h2.24c.44,0,.79-.36.79-.79v-1.36c0-.44-.36-.79-.79-.79Z"/>
</svg>