<svg xmlns="http://www.w3.org/2000/svg" version="1.1" xmlns:xlink="http://www.w3.org/1999/xlink" xmlns:svgjs="http://svgjs.dev/svgjs" width="2000" height="1500" viewBox="0 0 2000 1500"><rect width="2000" height="1500" fill="#ffffff"></rect><g transform="matrix(0.75,0,0,0.75,249.090909090909,535.8943704710917)"><svg viewBox="0 0 396 113" data-background-color="#ffffff" preserveAspectRatio="xMidYMid meet" height="570" width="2000" xmlns="http://www.w3.org/2000/svg" xmlns:xlink="http://www.w3.org/1999/xlink"><g id="tight-bounds" transform="matrix(1,0,0,1,0.2400000000000091,0.09400265910323924)"><svg viewBox="0 0 395.52 112.81199468179354" height="112.81199468179354" width="395.52"><g><svg viewBox="0 0 593.8267244075647 169.37393121908644" height="112.81199468179354" width="395.52"><g transform="matrix(1,0,0,1,0,23.408408728542348)"><svg viewBox="0 0 395.52 122.55711376200175" height="122.55711376200175" width="395.52"><g id="textblocktransform"><svg viewBox="0 0 395.52 122.55711376200175" height="122.55711376200175" width="395.52" id="textblock"><g><svg viewBox="0 0 395.52 122.55711376200175" height="122.55711376200175" width="395.52"><g transform="matrix(1,0,0,1,0,0)"><svg width="395.52" viewBox="1.1 -38.05 171.83 53.25" height="122.55711376200175" data-palette-color="#969ca6"><path d="M11.7-17.45L11.7-17.45Q8.8-15.4 8.8-11.35L8.8-11.35Q8.8-8.8 10.63-6.55 12.45-4.3 16.8-4.3 21.15-4.3 25.05-7.25 28.95-10.2 30.95-13.7L30.95-13.7 32.65-10.65Q26.2 0.3 14.7 0.3L14.7 0.3Q9 0.3 5.05-2.78 1.1-5.85 1.1-10L1.1-10Q1.1-17.25 7.55-20.5L7.55-20.5Q5.4-23.15 5.4-26.7L5.4-26.7Q5.4-31.35 9.43-34.7 13.45-38.05 18.75-38.05 24.05-38.05 26.93-35.35 29.8-32.65 29.8-28.25L29.8-28.25 25.05-28.25Q25.1-30.95 23.63-32.33 22.15-33.7 19.53-33.7 16.9-33.7 14.8-31.8L14.8-31.8Q12.45-29.75 12.45-27 12.45-24.25 13.95-22.25L13.95-22.25Q18.95-22.85 21.55-21.6L21.55-21.6Q23.15-20.85 23.15-19.23 23.15-17.6 21.33-16.95 19.5-16.3 16.95-16.3 14.4-16.3 11.7-17.45ZM44.52-8.95Q42.95-4.9 40.02-2.33 37.1 0.25 33.35 0.25 29.6 0.25 27.72-2.23 25.85-4.7 25.85-7.9L25.85-7.9Q25.85-8.55 25.9-9.2L25.9-9.2 27.6-23.45Q29.2-24.05 31-24.05L31-24.05Q34.3-24.05 34.3-21.6L34.3-21.6Q34.3-21.5 33.47-14.93 32.65-8.35 32.65-7.3L32.65-7.3Q32.65-4.45 35.4-4.45L35.4-4.45Q37.75-4.45 39.35-7.1L39.35-7.1Q42.15-11.9 42.3-17.95L42.3-17.95 41.85-17.95Q39.75-17.95 38.65-18.9L38.65-18.9Q37.4-20 37.4-21.55 37.4-23.1 38.35-24.05L38.35-24.05Q39.5-25.05 41.1-25.05L41.1-25.05Q44.9-25.05 45.85-21.1L45.85-21.1Q47.35-21.3 48-21.5L48-21.5 48-18.65 46.15-18.35 46.15-17.5Q46.1-13 44.52-8.95ZM40.25-21.55L40.25-21.55Q40.25-20.7 41.7-20.7L41.7-20.7Q41.85-20.7 42-20.7L42-20.7Q41.65-22.05 40.95-22.05 40.25-22.05 40.25-21.55ZM57.7-11.2Q60.8-11.85 62.32-13.7 63.85-15.55 63.85-17.28 63.85-19 62.92-19.63 62-20.25 60.9-20.25L60.9-20.25Q58.55-20.25 56.77-17.63 55-15 55-11.38 55-7.75 56.72-5.98 58.45-4.2 61-4.2L61-4.2Q64.75-4.2 68.2-6.8 71.65-9.4 73.8-13.6L73.8-13.6Q74.9-12.55 75.8-11L75.8-11Q74.15-7.25 69.95-3.65L69.95-3.65Q67.84-1.9 64.97-0.8 62.1 0.3 59.05 0.3L59.05 0.3Q54.05 0.3 51.15-2.75L51.15-2.75Q48.05-6.05 48.05-11.2 48.05-16.35 51.92-20.2 55.8-24.05 61.2-24.05L61.2-24.05Q65.05-24.05 67.45-22.38 69.84-20.7 69.9-17.85L69.9-17.85Q69.9-14 66.82-11.6 63.75-9.2 58.4-8.25L58.4-8.25 57.7-11.2ZM85.94-5.6L85.94-5.6 87.14-16.75Q87.14-18.1 86.44-19 85.74-19.9 84.12-19.9 82.49-19.9 81.37-18.48 80.24-17.05 79.94-14.9L79.94-14.9Q78.14-1.2 78.04 0L78.04 0 71.29 0 74.04-23.55Q76.14-24.1 77.24-24.1L77.24-24.1Q80.59-24.1 80.74-21.65L80.74-21.65Q83.19-24.05 86.62-24.05 90.04-24.05 91.99-22.35 93.94-20.65 93.94-18.05L93.94-18.05Q93.94-17.35 93.64-15.4L93.64-15.4Q92.49-7.8 92.49-6.55L92.49-6.55Q92.49-4.25 94.04-4.25L94.04-4.25Q97.44-4.25 99.19-11.35L99.19-11.35Q100.89-9.55 101.24-8.5L101.24-8.5Q98.59 0.3 92.04 0.3L92.04 0.3Q88.94 0.3 87.44-1.6 85.94-3.5 85.94-5.6ZM108.94-34.8L108.94-34.8Q108.94-34.5 107.59-24.05L107.59-24.05 114.94-24.05 114.94-20.2 107.09-20.2 106.94-18.95Q112.79-14.05 112.79-8.25L112.79-8.25Q112.79-3.7 110.47-1.7 108.14 0.3 104.89 0.3 101.64 0.3 100.14-1.43 98.64-3.15 98.64-5.6L98.64-5.6Q98.64-6.15 98.74-6.8L98.74-6.8 100.29-20.1 100.09-20.2 96.04-20.2Q95.99-20.7 95.99-21.83 95.99-22.95 96.44-24.05L96.44-24.05 100.74-24.05 102.34-37.65Q103.39-38.05 105.14-38.05L105.14-38.05Q108.94-38.05 108.94-34.8ZM109.44-8.3L109.44-8.3Q109.44-11.75 106.44-15.1L106.44-15.1Q105.54-7.65 105.54-6.5L105.54-6.5Q105.54-4.25 106.99-4.25L106.99-4.25Q108.04-4.25 108.74-5.23 109.44-6.2 109.44-8.3ZM118.64-36.83Q119.79-38 121.44-38 123.09-38 124.26-36.83 125.44-35.65 125.44-34 125.44-32.35 124.26-31.2 123.09-30.05 121.44-30.05 119.79-30.05 118.64-31.2 117.49-32.35 117.49-34 117.49-35.65 118.64-36.83ZM116.59-22.15Q117.09-23.05 118.49-23.53 119.89-24 121.26-24 122.64-24 123.69-23.65L123.69-23.65Q121.74-8.6 121.74-8.45L121.74-8.45Q121.49-7.45 121.49-6.78 121.49-6.1 121.59-5.6L121.59-5.6Q121.79-4.3 123.41-4.3 125.04-4.3 126.41-6.43 127.79-8.55 128.49-11.25L128.49-11.25Q128.84-11.05 129.59-10.05 130.34-9.05 130.49-8.55L130.49-8.55Q129.49-4.55 127.09-2.1L127.09-2.1Q124.69 0.35 121.34 0.35 117.99 0.35 116.36-1.3 114.74-2.95 114.74-5.55L114.74-5.55Q114.74-6.1 114.79-6.7L114.79-6.7 116.59-22.15ZM139.89 0.05L139.89 0.05Q142.64 4.9 142.64 8.08 142.64 11.25 140.71 13.23 138.79 15.2 135.69 15.2 132.59 15.2 130.61 13.48 128.64 11.75 128.64 8.7L128.64 8.7Q128.64 8.1 128.84 6.3L128.84 6.3 130.39-7.2Q127.44-11.15 125.54-13.5L125.54-13.5Q127.24-15.85 128.39-15.85L128.39-15.85Q128.94-15.85 129.41-15.3 129.89-14.75 131.04-13.25L131.04-13.25 132.94-30.05Q133.34-33.35 134.54-35.4L134.54-35.4Q136.14-38.05 140.44-38.05L140.44-38.05Q143.49-38.05 145.09-36.38 146.69-34.7 146.69-31.75L146.69-31.75Q146.69-27.8 144.11-23.95 141.54-20.1 138.14-17.2L138.14-17.2 136.89-5.15Q137.74-4.2 139.29-4.2L139.29-4.2Q142.39-4.2 144.46-6.83 146.54-9.45 148.09-14.25L148.09-14.25Q148.79-13.85 149.56-13.23 150.34-12.6 150.44-12.35L150.44-12.35Q149.29-6.8 146.44-3.75 143.59-0.7 139.89 0.05ZM142.24-33.7L142.24-33.7Q141.99-33.75 141.74-33.75L141.74-33.75Q140.39-33.75 139.94-32 139.49-30.25 138.84-23.95L138.84-23.95 138.64-22.05Q140.79-24.25 142.11-26.73 143.44-29.2 143.44-31.23 143.44-33.25 142.24-33.7ZM136.29 0.6L135.54 7.6Q135.49 7.85 135.49 8.68 135.49 9.5 135.99 10.05 136.49 10.6 137.31 10.6 138.14 10.6 138.79 9.93 139.44 9.25 139.44 7.85L139.44 7.85Q139.44 5.2 136.29 0.6L136.29 0.6ZM155.13 14.85L155.13 14.85Q152.28 14.85 150.23 13.13 148.18 11.4 148.18 8.1L148.18 8.1Q148.18 4.05 152.28 0.2L152.28 0.2Q149.38-0.05 147.63-1.7 145.88-3.35 145.88-6.35L145.88-6.35Q145.88-7.75 146.23-10.55 146.58-13.35 146.98-16.6 147.38-19.85 147.83-23.5L147.83-23.5Q149.38-24.05 150.68-24.05 151.98-24.05 152.63-23.95 153.28-23.85 153.88-23.2 154.48-22.55 154.48-21.35L154.48-21.35 152.83-8.6Q152.73-7.8 152.73-7.5L152.73-7.5Q152.73-4.55 155.43-4.55L155.43-4.55Q157.88-4.55 159.43-6.85L159.43-6.85Q159.58-8 160.18-13.48 160.78-18.95 161.18-22L161.18-22Q161.63-22.95 163.06-23.5 164.48-24.05 165.38-24.05L165.38-24.05Q166.98-24.05 168.28-23.65L168.28-23.65 165.93-5.2Q171.78-4.15 172.93 2.85L172.93 2.85Q172.73 3.8 171.03 5.85L171.03 5.85Q170.03-0.4 165.53-1.75L165.53-1.75 164.73 4.5Q164.18 9 161.88 11.93 159.58 14.85 155.13 14.85ZM152.08 7.15Q152.08 8.8 152.88 9.6 153.68 10.4 155.01 10.4 156.33 10.4 157.03 9.3 157.73 8.2 158.13 4.9L158.13 4.9 158.78-0.6Q152.23 2.8 152.08 7.15L152.08 7.15Z" opacity="1" transform="matrix(1,0,0,1,0,0)" fill="#969ca6" class="wordmark-text-0" data-fill-palette-color="primary" id="text-0"></path></svg></g></svg></g></svg></g></svg></g><g transform="matrix(1,0,0,1,424.4527931884783,0)"><svg viewBox="0 0 169.37393121908644 169.37393121908644" height="169.37393121908644" width="169.37393121908644"><g data-palette-color="#a2a098"><rect width="46.29554119988362" height="169.37393121908644" fill="#a2a098" stroke="transparent" data-fill-palette-color="accent" x="0" fill-opacity="1"></rect><rect width="46.29554119988362" height="169.37393121908644" fill="#a2a098" stroke="transparent" data-fill-palette-color="accent" x="56.45797707302881" fill-opacity="0.75"></rect><rect width="46.29554119988362" height="169.37393121908644" fill="#a2a098" stroke="transparent" data-fill-palette-color="accent" x="112.91595414605762" fill-opacity="0.5"></rect></g></svg></g></svg></g><defs></defs></svg><rect width="395.52" height="112.81199468179354" fill="none" stroke="none" visibility="hidden"></rect></g></svg></g></svg>